<svg viewBox="0 0 24 25" xmlns="http://www.w3.org/2000/svg" xmlns:xlink="http://www.w3.org/1999/xlink" xml:space="preserve" overflow="hidden"><defs><clipPath><rect x="262" y="287" width="24" height="25"/></clipPath></defs><g clip-path="url(#clip0)" transform="translate(-262 -287)"><path d="M15.475 15.6C17.425 13.725 17.525 10.625 15.675 8.625 17.65 9.65 19.275 11.225 20.225 12.275 19.225 13.25 17.525 14.7 15.475 15.6ZM5.65 10.45C6.475 9.75 7.35 9.15 8.3 8.65 6.475 10.65 6.575 13.725 8.525 15.6 6.475 14.7 4.75 13.25 3.775 12.275 4.35 11.625 4.975 11.025 5.65 10.45L5.65 10.45ZM12 16C9.8 16 8 14.2 8 12 8 9.8 9.8 8 12 8 14.2 8 16 9.8 16 12 16 14.2 14.2 16 12 16ZM21.725 11.575C20.275 9.875 16.475 6 12 6 7.525 6 3.725 9.875 2.275 11.575 1.9 12.025 1.925 12.65 2.325 13.075 3.8 14.625 7.575 18 12 18 16.425 18 20.2 14.625 21.7 13.075 22.075 12.675 22.1 12.025 21.725 11.575Z" transform="matrix(1 0 0 1.04167 262 287)"/><path d="M14.5 12C14.5 13.3807 13.3807 14.5 12 14.5 10.6193 14.5 9.5 13.3807 9.5 12 9.5 10.6193 10.6193 9.5 12 9.5 13.3807 9.5 14.5 10.6193 14.5 12Z" transform="matrix(1 0 0 1.04167 262 287)"/></g></svg>