<svg width="52" height="51" xmlns="http://www.w3.org/2000/svg" xmlns:xlink="http://www.w3.org/1999/xlink" xml:space="preserve" overflow="hidden"><defs><clipPath  ><rect x="120" y="426" width="52" height="51"/></clipPath><clipPath id="clip1"><path d="M120.999 451.435 147.309 426.05 171.552 451.177 145.242 476.562Z" fill-rule="evenodd" clip-rule="evenodd"/></clipPath><clipPath id="clip2"><path d="M120.999 451.435 147.309 426.05 171.552 451.177 145.242 476.562Z" fill-rule="evenodd" clip-rule="evenodd"/></clipPath><clipPath id="clip3"><path d="M120.999 451.435 147.309 426.05 171.552 451.177 145.242 476.562Z" fill-rule="evenodd" clip-rule="evenodd"/></clipPath></defs><g clip-path="url(#clip0)" transform="translate(-120 -426)"><g clip-path="url(#clip1)"><g clip-path="url(#clip2)"><g clip-path="url(#clip3)"><path d="M26.9867 26.9867C25.7137 28.2596 23.6406 28.2596 22.3677 26.9867L19.2762 23.8952C18.2942 22.9132 18.0396 21.422 18.6579 20.1855L21.3493 22.8768C21.7857 23.2769 22.4404 23.2769 22.8768 22.8405 23.2769 22.4404 23.3133 21.7494 22.9132 21.3129L20.2218 18.6215C21.4584 18.0396 22.9496 18.2942 23.9316 19.2762L27.0231 22.3677C28.2596 23.6406 28.2596 25.6774 26.9867 26.9867ZM11.0202 15.6392 7.9287 12.5477C6.65574 11.2748 6.65574 9.20166 7.9287 7.9287 9.20166 6.65574 11.2748 6.65574 12.5477 7.9287L15.6392 11.0202C16.6212 12.0022 16.8758 13.4933 16.2938 14.7299L14.1116 12.5477C13.6752 12.1476 13.0205 12.1476 12.5841 12.5841 12.184 12.9842 12.1476 13.6752 12.5477 14.1116L14.7299 16.2938C13.4933 16.8758 12.0022 16.6212 11.0202 15.6392ZM28.5142 20.8037 25.4228 17.7123C23.6043 15.8574 20.6946 15.5664 18.5488 17.0212L17.8941 16.3666C19.3126 14.2207 19.0216 11.3475 17.2031 9.49262L14.1116 6.40115C11.9658 4.43716 8.61973 4.5099 6.54663 6.54663 4.47353 8.61973 4.40079 11.9294 6.40115 14.1116L9.49262 17.2031C11.3111 19.058 14.2207 19.3489 16.3666 17.8941L17.0212 18.5488C15.6028 20.6946 15.8938 23.5679 17.7123 25.4228L20.8037 28.5142C22.9496 30.5146 26.2956 30.4418 28.3687 28.3687 30.4418 26.2956 30.5146 22.9496 28.5142 20.8037L28.5142 20.8037Z" transform="matrix(0.753538 -0.72703 0.694335 0.719651 120.999 451.435)"/></g></g></g></g></svg>