<svg viewBox="0 0 35 59" xmlns="http://www.w3.org/2000/svg" xmlns:xlink="http://www.w3.org/1999/xlink" xml:space="preserve" overflow="hidden"><defs><clipPath  ><rect x="923" y="735" width="35" height="59"/></clipPath></defs><g clip-path="url(#clip0)" transform="translate(-923 -735)"><path d="M947.71 742.991C946.254 742.047 945.099 740.707 944.382 739.129L944.382 737.666C944.382 736.194 943.186 735 941.71 735 940.234 735 939.038 736.194 939.038 737.666L939.038 778.206C936.441 777.764 933.773 778.027 931.313 778.967 925.481 781.077 921.9 785.937 923.305 789.815 924.71 793.692 930.588 795.147 936.42 793.021 940.481 791.521 943.435 788.748 944.382 785.838L944.382 756.984C944.879 757.405 945.41 757.785 945.97 758.118 954.932 763.405 949.977 771.99 954.375 771.99 959.909 772.036 960.138 751.255 947.71 742.991Z" fill-rule="evenodd"/></g></svg>